<?xml version="1.0" encoding="utf-8"?>
<!-- Generator: Adobe Illustrator 22.0.2, SVG Export Plug-In . SVG Version: 6.00 Build 0)  -->
<svg version="1.1"
	 id="NexT" xmlns:cc="http://creativecommons.org/ns#" xmlns:dc="http://purl.org/dc/elements/1.1/" xmlns:rdf="http://www.w3.org/1999/02/22-rdf-syntax-ns#" xmlns:svg="http://www.w3.org/2000/svg"
	 xmlns="http://www.w3.org/2000/svg" xmlns:xlink="http://www.w3.org/1999/xlink" x="0px" y="0px" viewBox="0 0 512 512"
	 style="enable-background:new 0 0 512 512;" xml:space="preserve">
<style type="text/css">
	.st0{fill:#7CC0DA;}
	.st1{fill:#FCFDFE;}
	.st2{fill:#FDFEFE;}
	.st3{fill:#F2FCFD;}
	.st4{fill:#D5F5F6;}
	.st5{fill:#F8FCFD;}
	.st6{fill:#F2FCFC;}
	.st7{fill:#F9FCFD;}
	.st8{fill:#B0F2F2;}
	.st9{fill:#DDF9FA;}
	.st10{fill:#F6FAFC;}
	.st11{fill:#F7FAFC;}
	.st12{fill:#F5FAFC;}
	.st13{fill:#E7F8F9;}
	.st14{fill:#ADEEF0;}
	.st15{fill:#9ADDE7;}
	.st16{fill:#B3F0F1;}
	.st17{fill:#BCECF1;}
	.st18{fill:#F5FCFC;}
	.st19{fill:#A4E0E5;}
	.st20{fill:#D5EEF3;}
	.st21{fill:#D9F3F4;}
	.st22{fill:#94DEE4;}
	.st23{fill:#B1DBEA;}
	.st24{fill:#F3F9FB;}
	.st25{fill:#B0D9E9;}
	.st26{fill:#BBEEF0;}
	.st27{fill:#E9FBFC;}
	.st28{fill:#F5FDFD;}
	.st29{fill:#B8DDEB;}
	.st30{fill:#EDFBFC;}
	.st31{fill:#B6DCEA;}
	.st32{fill:#7EC2DB;}
	.st33{fill:#F8FDFD;}
	.st34{fill:#E3FBFB;}
	.st35{fill:#EBF9FA;}
</style>
<g>
	<g>
		<path class="st0" d="M102.6,113c0.9-0.9,1.8-1.8,2.6-2.6c14.7-2.8,26.4,4.9,38.6,10.8c8.6,4.2,11.6,2.1,11.3-7.3
			c-0.5-11.5-0.3-22.9-0.4-34.4c2.5-12.6,12.3-7.4,19.7-8c16.3,11.8,24.4,28.9,30.1,50.6C211,107.8,217.5,97,224,86.2
			c3.3-5.5,6.8-6.6,12-6.6c5.1,0,8.6,1.3,10.4,6.8c3.6,11.1,8.2,21.9,14.2,32c1.2,11.1,2.4,22.2,3.6,33.4
			c10.5-2,16.2-10.7,23.9-16.6c28.2-5,32-1.6,25.1,22.1c-1.2,10.8-10.4,18.6-11.5,29.5c9.8,3.8,17.9-8.5,26.1-4.1
			c10.9,5.9,22.3,3,33,5.9c7.5,2,9.9-1.3,12.6-6.5c10.7-8.7,17.8-7.8,21.6,4.3c3.3,10.5,6.4,14.2,18,8.6
			c13.7-6.6,21.8,0.7,18.4,15.3c-1,4.5-2.4,8.8-1.7,13.4c-1.6,4.6-8.3,6.2-7.2,12.7c7.8,1.9,15.6,1,23.3,0.8
			c18.9,1.2,20.8,4.7,11.7,21.4c-3.1,5.7-5.3,12,1.8,15.3c8,3.8,15.7,9.8,25.6,7.6c11.1,6.3,1.9,14.8,2.5,22.3
			c-17.3,12.2-26,33-44.3,44.3c-11.1,5.3-23.3,9.1-27.9,22.4c-2.7,1.1-5.4,2.1-8.1,3.2c-6.7-1.7-13.4-0.3-20.2-0.5
			c-8.1-0.2-13.6,1.7-13.2,11.1c-7,13.7-11.1,14.8-21,5.5c-3.3-3.1-6.7-6.5-9-10.4c-2.4-4.1-5.7-4.8-9.8-6.2
			c-17.8-6.2-37.1-8.8-53.3-20.4c-10.3,17.1-12.9,34.9-6.1,53.9c0.9,12.1,6.3,22.6,12.3,32.7c3.3,5.6,6.8,11.1,0.4,15.4
			c-6.9,4.6-14.2,0.6-17.7-5.3c-10-17.1-22.5-33.4-23.6-54.5c-0.2-3.5-1.8-7-2.8-10.5c1.6-14.6,3.4-29.1,10.4-42.4
			c1.9-3.6,3.8-6.9-1.5-10.4c-13.1-8.8-21.3-22.4-32.5-34c-13.8,35.7-37.2,62.5-69.5,83.2c-9.4,6-22,6.8-28.7,17.1
			c-7,0-15.3,3-17-8.1c-0.3-18.8,0.5-37.6,7.9-58.9c-9.3,5.4-16.3,5.2-21.1,10.1c-4.4,4.5-9.5,6.5-14.6,2c-4.8-4.2-9.1-9.2-6.6-16.7
			c2.5-7.4,4.7-14.8,7.1-22.2c9.4-7,11.5-21.2,25.5-23.9c-14.4,0.4-24.4-9.1-36.6-12c-3-1.1-5.8-2.4-8.9-3.2
			c-8.8-2.4-16.8-6.2-18.5-15.9c-1.9-10.8,6.8-14.8,14.3-19.2c7.9-4.7,15.7-9.7,22.5-13.8c-8.2-12.1-26-12.4-29.3-28.6
			c0.4-6.2-0.6-13.3,8.6-14.3c20.4-1.6,41.1-5.4,62.7,8.7C108.3,157.6,99.8,136.4,102.6,113z M191,234.4c0.2,0.4,0.4,0.8,0.7,1.1
			c0.3,0.3,0.8,0.4,1.2,0.5c2.1-5.1,4.2-10.2,6.3-15.3c0.3-1.8,0.1-4.7,1.1-5.1c3.9-1.9,3.4,2.9,5.3,4.2c2.3,1.5,1.5,7.6,6.3,4.9
			c1.3-0.7,1.2-4.2,1.7-6.4c1.8,1,3.6-9.3,5.3,0c0.1,2.5,0.4,4.7,3.9,3.2c7.6-3.1,12.4-9.5,17.1-15.7c24.8-33.1,16.3-76.1-0.4-110
			c-3.6-7.3-6.8-3.6-9.7,0.8c-8.2,12.2-15.8,24.8-21.7,38.4c-6.3,14.4-10,29.6-12.8,46.7c-18.6-31.7-41.6-49.8-73.9-59.2
			c-6.6-1.9-10.4-2.3-8.5,7.2c6.1,31.9,18.1,60.7,39.9,85.1c-1.3,2.5-3.6,3.1-6.1,3.4c-34.2-10-83.8,11.5-97.4,30.5
			c13.7,6.6,27.3,13.1,42,16.8c8.1,3.1,16,7.6,25.1,3.6c1.8,0.5,3.7,1,5.5,1.5c8.8,4,17.5,6.1,25-2.6c13,2.1,23.4-3.7,33.2-11.1
			c7.3-2.1,9.9-5.7,4.2-12.3c-3-3.5-4.5-7.7-4.2-12.5C183.6,233,187.3,233.7,191,234.4z M443.4,332c12.1-8.2,22.4-18,30.5-32.2
			c-14.6,3.5-18.5,20.3-33,20.2c-4.6-11.4-16.7-14.7-24.9-22.1c-2.7-2.4-4.8,0.8-6,3.4c-6.7,1.4-10.9-0.6-10.8-8.2
			c-0.2-2.8-4.8-6.4,3-6.8c21.7-1.2,35.3-15.3,47-31.7c3.9-5.5,2.7-8.5-4.2-8.6c-13.3-0.2-26.4,0.1-39.6,3
			c-8.9,2-15.8,10.4-25.9,7.9c14.8-13.2,19-53.4,7.4-68.2c-3.4-4.3-5.5-1.4-7.5,1c-12.8,15.3-24.1,31.6-27.1,52
			c-1.4,9.8-1,19.6,6.4,28.7c2.8-7.2,5.2-13.4,9-23.2c0,6.8,0,9.5,0,12.2c-1.5,7.1,5.2,12.7,3.4,19.8c0.2,2.3,0.7,4.3,3.3,5.1
			c0.6,0.3,1.2,0.5,1.8,0.7c-4.5,4.6-9.4,10.1-5.6,16.3c4.2,7,11.7,3.5,19.3,0.6c-2.6,3.6-3.9,5.4-5.2,7.2c-2.3,0.8-7.4-0.5-6.5,2.6
			c1.5,4.8,4.8,10.2,12,6.7c-0.2,10.4,6.7,11.1,14.5,10.5c0.8,2.7,3.2,2.5,5.3,2.7c1.7,3.9,7,1.2,9.1,5c-9.5,4.2-17.9,9.4-26.9-2.2
			c-5.3-6.9-10.2-4-10.2,5c0,4,1.1,9.7-4.4,9.7c-4.3,0-4.2-5.4-3.8-9c1.4-14.4-4.3-26.8-11.1-38.8c-1.1-4-6-6-5.3-10.9
			c0.3-0.3,0.8-0.6,1-1c0.2-0.4,0.1-1.2,0-1.2c-7.5-1.6-12-7.5-17.4-12.2c-1-1.8-2.1-3.6-3.1-5.4c0.8-0.8,1.7-1.7,2.5-2.5
			c2.4,2.3,3.3,6.9,8.4,5.7c1.8-14.5-2.1-27.4-10.1-39.2c-3.2-4.7-4.3-6.1,2.4-9.5c8.2-4.1,7.6-15.6,12.5-23.2
			c2.1-3.3-4.1-3.2-6.7-4.6c-12.7-6.6-25.8-2.8-38.7-1.3c-25.8,2.9-51.1,7.4-70.2,27.5c-7.5,4.6-12.9,10.5-13.7,20.9
			c9.2-2.2,17.2-4.2,26.2-6.4c-3.6,7.1-13.2,4.9-14,11.2c-0.5,4.4,4.3,7.7,9.8,7.3c8.1,2.6,16.3,3.3,24.7,2.7
			c5.5,0.5,11,0.7,16.1-2.3c7.3-4.4,14-3.2,20,2.7c6.7,8.6,14.2,16.2,25.2,19.2c3.1,1.6,6.1,3.1,11.4,5.8
			c-19.2,5.1-35.9,11.5-49.6,23.2c-7.5,6.4-12.5,4.7-18.9-1.4c-16.3-15.6-30.9-32.9-45.9-49.7c-6.4-5.7-12.6-11.5-19.2-16.9
			c-2.3-1.9-5.8-4.1-8.7-1.7c-3.8,3.1,0.7,5.4,1.6,8.1c2.4,6.7,6.7,13.1,1.1,20.4c-5.8,7.6-11,15.5-16.5,23.3
			c-3-0.1-3.9,5.8-7.9,2.8c3.6-5.3,7.8-10.3,10.6-16c1.8-3.6,8.8-7,3.8-11.6c-4.1-3.8-10.3-3.5-14.7,1.1c-11.4,12.1-36,9.3-37.1,33
			c-19.8,9.1-19.7,28.7-24,45.9c-4.4,11.1-1.6,23-3.6,34.4c-1.6,8.7,3.4,6.7,7.9,4.4c25.5-12.8,48.9-28.2,65.8-51.9
			c15.1-15.3,23.3-33.4,20.8-55.1c-0.7-6.1,0.2-8.6,6.2-8.8c8.3,23.4,26.6,39.4,44,55.3c7.6,6.9,8,11.3,3.5,19.4
			c-4.6,8.3-8.9,17.2-8.3,27.3c-5.6,21,5.1,56.3,23,69.2c-16.5-26.6-18.2-52.8-11.7-80.1c1.4-2.3,3-4.5,4.1-7
			c5.3-11.3,12.6-14.6,22.9-5.9c6.5,5.5,14.4,7.6,22.1,10.3c14.8,5.3,32.8,4.9,40.1,23.7c2,5,6.6,4.6,8.5-1.3
			c6.1-18.8,20.1-20,36.2-16.3c3.5,0.8,6.3,1.9,7.1-2.9c0.8-4.9,5.3-5.8,8.6-8.1C425.2,345.6,436.2,341.5,443.4,332L443.4,332z
			 M317.1,282.2c-5.7-5.4-10.9-16.3-17.7-15.5c-14.1,1.6-28.6-0.3-42.1,2.4c3.4,15,19.3,17,25.6,28.5c2.7,5,3.5,4.6,33.2-13.6
			C316.4,283.9,316.5,283.3,317.1,282.2z M166.3,80.1c-4.9,19.2-3.8,36,5.5,51.8c2.5,4.3,5.5,9.6,11.4,7.9c5.9-1.7,7.4-7.2,8.1-13.1
			C193.8,106.4,183.4,92.9,166.3,80.1z M304.7,151c0.4-5.6-0.7-9.6-7.6-6.5c-14.5,6.7-26.8,15.9-32.7,31.5c-1.4,3.8-3.2,8.1,1,11.2
			c3.4,2.6,7.2,3,11.7,1.5C291.6,184,304.8,166.2,304.7,151z M80.2,181.3c-5.5,0.5-11.1,0.5-16.4,1.6c-4.9,1-7.1,3.6-3.2,8.8
			c8.1,10.9,34.6,21,47.3,17.8c7.2-1.8,9.1-5.6,5.1-11.8C105.4,185.8,94.5,180.2,80.2,181.3z M127.6,294.5c-5.9-2.6-9.6-8.3-17.8-5
			c-15.4,6.3-23.5,18.1-28.2,33.5c-2.8,9.1,1.4,10.4,8,7.7c13.3-5.5,25.8-12.4,33-25.8C124.1,302.1,125.4,299.1,127.6,294.5z
			 M467.4,288.3c-9.3-7.9-19.1-6.4-28.6-6.3c-4.9,0-10.1,2.1-10.1,7.1c0,4.4,4.8,7.8,9.4,8.9C449.5,300.6,458.8,296.5,467.4,288.3z
			 M420.6,201.6c-10.4,5.6-17.7,12.1-21.1,22c-1.2,3.3-2,7.8,1.5,10.2c3.3,2.2,7,0.6,10.1-1.8C420.4,224.7,423,215.1,420.6,201.6z"
			/>
		<path class="st1" d="M152.7,215c-21.8-24.4-33.8-53.3-39.9-85.1c-1.8-9.6,1.9-9.2,8.5-7.2c32.3,9.4,55.3,27.5,73.9,59.2
			c2.8-17.1,6.5-32.3,12.8-46.7c5.9-13.6,13.5-26.2,21.7-38.4c3-4.4,6.1-8.1,9.7-0.8c16.8,33.8,25.2,76.8,0.4,110
			c-4.6,6.2-9.5,12.5-17.1,15.7c-3.5,1.4-3.8-0.8-3.9-3.2c5.2-19.8,6-40.2,5.1-60.8c-3.5,20.2-7,40.5-10.5,60.7
			c-0.5,2.2-0.4,5.6-1.7,6.4c-4.8,2.7-4-3.3-6.3-4.9c-1.9-1.3-1.4-6-5.3-4.2c-1,0.5-0.8,3.4-1.1,5.1c-6.1,0.3-8.9-4.4-12-8.2
			c-7.5-9.3-14.4-19.1-21.8-28.4c-3-3.8-5.3-9.3-12.8-8.7c9.3,16.7,23.2,28.7,30.5,45.2c-4.7,5.7-9.7,2.6-14.4,0.1
			c-4.3-2.2-7.8-6.2-13.2-5.4C154.5,215.2,153.6,215,152.7,215z"/>
		<path class="st2" d="M238.2,223.8c19.1-20.1,44.4-24.6,70.2-27.5c12.9-1.4,26-5.3,38.7,1.3c2.6,1.3,8.8,1.3,6.7,4.6
			c-4.9,7.6-4.3,19.1-12.5,23.2c-6.8,3.4-5.6,4.8-2.4,9.5c8,11.7,11.8,24.7,10.1,39.2c-5.1,1.1-5.9-3.5-8.4-5.7
			c-6.5-8-12.9-16-19.4-24c2.8,11.2,9.8,18.8,16.9,26.5c1,1.8,2.1,3.6,3.1,5.4c-2.9,1-5.7,1.9-8.6,2.9c-11-3-18.5-10.6-25.2-19.2
			c-3.6-14.4-18.3-12.6-27.7-18.2c-2.3-1.4-3.2,3.9-1.9,6.1c4.6,7.9-1.3,9.6-6.5,11.8c-8.4,0.6-16.7-0.2-24.7-2.7
			c-1.6-6,0.7-8.2,6.3-11.6c6.5-3.9,21.2,6.2,20.2-11c0-0.7,4-1.6,6.1-2.4c3.3-1.2,6.2-2.8,7-7.4c-9,2.1-18.3,7.5-25.1,5.2
			c-8.2-2.8-14.7-4.7-22.4-0.5C238.5,227.4,238.3,225.6,238.2,223.8z"/>
		<path class="st3" d="M332.6,279.1c2.9-1,5.7-1.9,8.6-2.9c5.4,4.6,9.9,10.5,17.4,12.2c0.1,0,0.1,0.9,0,1.2c-0.2,0.4-0.6,0.7-1,1
			c-6.3-0.2-9.6,5.1-14.3,7.8c-6.2,3-12.3,5.7-17.9,10c-8,6.1-25.2,6.7-24,16.1c1.4,11.3,17.8,13.5,28.3,18.7
			c-1.5,5.4,8.6,5.1,5.7,10.4c-3.9,7.1-8.4,2.5-13.1,0.1c-1.3-0.7-4.5,2.2-6.8,3.4c-7.7-2.7-15.7-4.8-22.1-10.3
			c-10.4-8.8-17.6-5.5-22.9,5.9c-1.1,2.4-2.7,4.6-4.1,7c-3.6,3.8-5.2,9.6-11.2,10.9c-0.6-10.1,3.7-19,8.3-27.3
			c4.6-8.2,4.1-12.5-3.5-19.4c-17.5-16-35.7-31.9-44-55.3c5.3-3,0.8-18,13.9-11.4c15,16.8,29.6,34,45.9,49.7
			c6.3,6.1,11.4,7.8,18.9,1.4c13.7-11.8,30.4-18.1,49.6-23.2C338.7,282.2,335.6,280.7,332.6,279.1z"/>
		<path class="st4" d="M315.3,357.1c2.3-1.2,5.4-4.1,6.8-3.4c4.7,2.4,9.3,7,13.1-0.1c2.9-5.3-7.2-5-5.7-10.4c8.4,0.6,8.2-5,8.1-10.9
			c-0.2-11.7,3.2-22.2,11.4-30.9c5.5,5.2,2.2,10.3-0.6,15c-2.8,4.7-7.6,8.9-1.5,14.3c5.3,4.7,12.4,8.7,18.5,7.9
			c7.1-1-2.4-8.7,1.7-12.8c0.4-0.4,0-1.6-0.1-2.4c-3.6-1.8-5.8,8.3-7.9,2.3c-2.7-7.7-6.5-17.5,3.6-24.1c6.8,12,12.5,24.4,11.1,38.8
			c-0.3,3.6-0.4,9,3.8,9c5.6,0,4.4-5.8,4.4-9.7c0-8.9,4.9-11.9,10.2-5c8.9,11.7,17.4,6.4,26.9,2.2c-2.1-3.8-7.5-1.1-9.1-5
			c11.1-1.5,22.2-6,33.3,0.2c-7.2,9.5-18.3,13.6-27.6,20.2c-3.3,2.3-7.8,3.2-8.6,8.1c-0.8,4.8-3.6,3.7-7.1,2.9
			c-16.1-3.7-30.1-2.5-36.2,16.3c-1.9,5.9-6.6,6.3-8.5,1.3C348.1,362.1,330.1,362.5,315.3,357.1z"/>
		<path class="st5" d="M91.1,265.6c-14.7-3.7-28.3-10.2-42-16.8c13.6-19,63.3-40.5,97.4-30.5c6.7,3.7,13.5,7.5,20.2,11.3
			c3.5,2,5.4,4.8,4.7,9c-0.9,5.3-5.1,4.5-8.6,4.2c-11.6-0.9-23.5,2-34.6-5.4c-2.9-2-1.4,3.4-1.1,5.6c-12.4-4.1-22.5,7.1-35.9,2.6
			C93.9,254.3,105.9,261.1,91.1,265.6z"/>
		<path class="st6" d="M188.7,332.4c-16.9,23.7-40.3,39.1-65.8,51.9c-4.5,2.2-9.5,4.3-7.9-4.4c2-11.4-0.7-23.3,3.6-34.4
			c8,0.6,8-6.4,9.5-11.7c2.7,2.5,4.3,5.1,6.7,6.1c3.9,1.6-1.4,9.2,4.8,7.5c6.1-1.6,1.3-7.1,1.7-10.6c0.7-6.6-4.9-14.8,5.5-18.6
			c13.1,13.2,13.1,13.2,22.1,5.6C171.6,335.6,184.1,324.8,188.7,332.4z"/>
		<path class="st5" d="M371.2,279.4c1.8-7.1-4.9-12.8-3.4-19.8c4.3,0.8,8.1-0.5,11.8-2.5c10.1,2.5,16.9-5.9,25.9-7.9
			c13.2-3,26.3-3.2,39.6-3c6.9,0.1,8.1,3.1,4.2,8.6c-11.8,16.4-25.3,30.6-47,31.7c-7.9,0.4-3.3,4-3,6.8c-5.9,0.1-17.9,0.9-16.7-0.7
			c10.1-13.6-6.7-3.4-6.1-7.4c-0.6-0.2-1.2-0.4-1.9-0.7c8.3-9.1,21.9-9.1,30.3-18.3C393.4,270.2,381.3,272.3,371.2,279.4z"/>
		<path class="st7" d="M379.5,257c-3.7,2-7.5,3.3-11.8,2.5c0-2.7,0-5.4,0-12.2c-3.8,9.8-6.2,15.9-9,23.2c-7.4-9.1-7.9-18.9-6.4-28.7
			c3-20.4,14.3-36.6,27.1-52c2-2.4,4.1-5.3,7.5-1C398.6,203.6,394.3,243.8,379.5,257z"/>
		<path class="st8" d="M146.7,318.2c-10.3,3.8-4.7,11.9-5.5,18.6c-0.4,3.6,4.4,9-1.7,10.6c-6.1,1.6-0.9-6-4.8-7.5
			c-2.3-0.9-4-3.5-6.7-6.1c-1.5,5.3-1.5,12.2-9.5,11.7c4.3-17.2,4.1-36.8,24-45.9c1.1-23.6,25.7-20.8,37.1-33
			c4.3-4.6,10.6-4.9,14.7-1.1c5,4.6-2,8-3.8,11.6c-2.8,5.7-7,10.7-10.6,16c-5.8,1.4-4.5,8.2-8.3,11c-1.4-2.3-4.2-4.7-4.1-6.9
			c0.3-8.6,0.1-10-7.4-8.7c-2.6,0.5-5.1-4.6-7.8,0.4c8.2,4.8,9.3,14.8,16.2,20.5c-0.9,2.5-2.9,3-5.2,3.2
			c-6.1-3.5-11.8-10.7-19.5-2.7C144.9,312.7,145.8,315.4,146.7,318.2z"/>
		<path class="st9" d="M188.7,332.4c-4.6-7.6-17.1,3.3-19.8-8.6c-0.1-13.1,8.9-20.2,18.4-26.5c1.8-1.2,6.8,5.5,8.1-1.1
			c0.8-4.3-3.5-5.7-7.5-5.9c5.5-7.8,10.7-15.8,16.5-23.3c5.6-7.4,1.3-13.8-1.1-20.4c-1-2.7-5.5-5-1.6-8.1c3-2.4,6.4-0.2,8.7,1.7
			c6.6,5.4,12.9,11.2,19.2,16.9c-13.1-6.6-8.6,8.4-13.9,11.4c-6,0.2-6.9,2.8-6.2,8.8C212,299,203.8,317.1,188.7,332.4z"/>
		<path class="st10" d="M166.3,80.1c17.1,12.8,27.5,26.3,25,46.6c-0.7,5.9-2.2,11.4-8.1,13.1c-6,1.7-8.9-3.6-11.4-7.9
			C162.5,116,161.4,99.3,166.3,80.1z"/>
		<path class="st11" d="M304.7,151c0.1,15.2-13.2,33-27.6,37.8c-4.5,1.5-8.3,1-11.7-1.5c-4.2-3.1-2.4-7.4-1-11.2
			c5.9-15.6,18.2-24.8,32.7-31.5C304,141.4,305.2,145.5,304.7,151z"/>
		<path class="st12" d="M80.2,181.3c14.3-1.1,25.1,4.5,32.8,16.4c4,6.2,2.1,10.1-5.1,11.8c-12.7,3.1-39.1-6.9-47.3-17.8
			c-3.9-5.2-1.7-7.8,3.2-8.8C69.2,181.8,74.7,181.8,80.2,181.3z"/>
		<path class="st13" d="M127.6,294.5c-2.2,4.7-3.5,7.6-5,10.4c-7.2,13.4-19.7,20.3-33,25.8c-6.6,2.7-10.8,1.4-8-7.7
			c4.7-15.4,12.8-27.2,28.2-33.5C118,286.1,121.7,291.9,127.6,294.5z"/>
		<path class="st14" d="M376.3,285.1c-0.6,4,16.2-6.2,6.1,7.4c-1.1,1.5,10.8,0.7,16.7,0.7c-0.1,7.6,4.1,9.5,10.8,8.2
			c2.5,3.7,0.3,10.7,1.5,16.5c1.7,7.6,1.5,10.9-6.7,11.3c-7.8,0.6-14.7-0.1-14.5-10.5c3-2.7,5.5-5.6,4.4-10.9
			c-3.4,1.1-6,8.4-9.9,1.5c1.3-1.8,2.6-3.6,5.2-7.2c-7.7,2.9-15.2,6.4-19.3-0.6C367,295.1,371.8,289.7,376.3,285.1z"/>
		<path class="st15" d="M127.2,243c-0.2-2.2-1.8-7.6,1.1-5.6c11,7.4,23,4.5,34.6,5.4c3.5,0.3,7.7,1,8.6-4.2c0.7-4.2-1.1-7-4.7-9
			c-6.7-3.7-13.5-7.5-20.2-11.3c2.5-0.3,4.9-0.8,6.1-3.4c0.9,0.1,1.8,0.2,2.7,0.3c6.8,7.7,16,11.8,24.6,16.9
			c-0.4,4.7,1.1,8.9,4.2,12.5c5.7,6.6,3.1,10.2-4.2,12.3c-8.1-6.2-19.8-5.2-25.3,1.7c-2.1,2.6-3.3,6.8-8,6.5c0,0,0.1,0.1,0.1,0.1
			c2.6-4.9,5.2-9.7,7.7-14.2c-9.2-6.2-10.7,4.2-16.1,5.9C136.7,250.6,127.7,250.2,127.2,243z"/>
		<path class="st16" d="M127.2,243c0.6,7.2,9.6,7.6,11.2,14c-0.3,3.9-3.5,8.2,0.5,11.4c3.5,2.8,4.8-3,7.9-3.1c0,0-0.1-0.1-0.1-0.1
			c0,1,0,2,0.1,2.9c-7.5,8.7-16.2,6.6-25,2.6c3.5-2.3,12.9-3.4,8.4-7.8c-4.1-3.9,0.3-14.4-8.5-12.1c-6,1.6-6.8,8.3-5.8,14.3
			c0.2,1.3,0.3,2.7,0.5,4.1c-9.1,4-17-0.5-25.1-3.6c14.8-4.5,2.8-11.3,0.2-20.1C104.6,250.1,114.7,238.9,127.2,243z"/>
		<path class="st17" d="M238.2,223.8c0.1,1.8,0.3,3.6,0.4,5.4c7.6-4.2,14.2-2.3,22.4,0.5c6.8,2.3,16.1-3,25.1-5.2
			c-0.8,4.6-3.6,6.2-7,7.4c-2.1,0.8-6.2,1.7-6.1,2.4c1,17.2-13.6,7.1-20.2,11c-5.7,3.4-8,5.5-6.3,11.6c-5.5,0.4-10.3-2.9-9.8-7.3
			c0.7-6.3,10.4-4.1,14-11.2c-9,2.2-17,4.1-26.2,6.4C225.3,234.3,230.7,228.4,238.2,223.8z"/>
		<path class="st18" d="M404.8,329.1c8.2-0.4,8.3-3.7,6.7-11.3c-1.2-5.7,0.9-12.8-1.5-16.5c1.2-2.6,3.3-5.8,6-3.4
			c8.2,7.4,20.3,10.7,24.9,22.1c0.8,4,1.7,7.9,2.5,11.9c0,0,0,0,0,0c-11.1-6.2-22.2-1.7-33.3-0.2C408,331.6,405.6,331.8,404.8,329.1
			z"/>
		<path class="st19" d="M362.8,301.5c-10.1,6.6-6.3,16.4-3.6,24.1c2.1,5.9,4.3-4.1,7.9-2.3c0,0.8,0.5,2,0.1,2.4
			c-4.1,4.1,5.4,11.8-1.7,12.8c-6.1,0.9-13.2-3.1-18.5-7.9c-6.1-5.4-1.3-9.6,1.5-14.3c2.7-4.6,6.1-9.8,0.6-15
			c-1.2-2.4-3.6-2.6-5.8-3c4.7-2.7,8-8,14.3-7.8C356.8,295.4,361.7,297.5,362.8,301.5z"/>
		<path class="st20" d="M254.9,370.6c6-1.3,7.6-7.1,11.2-10.9c-6.4,27.2-4.8,53.5,11.7,80.1C260,426.9,249.3,391.6,254.9,370.6z"/>
		<path class="st21" d="M467.4,288.3c-8.7,8.3-17.9,12.4-29.2,9.7c-4.6-1.1-9.4-4.4-9.4-8.9c-0.1-5,5.2-7,10.1-7.1
			C448.4,281.9,458.2,280.4,467.4,288.3z"/>
		<path class="st22" d="M187.9,290.3c4,0.2,8.3,1.6,7.5,5.9c-1.3,6.6-6.3-0.1-8.1,1.1c-9.5,6.3-18.5,13.4-18.4,26.5
			c-9,7.5-9,7.5-22.1-5.6c-0.9-2.8-1.9-5.5-2.8-8.3c4.5,2.1,9.3,3.8,13.6,6.3c4.7,2.6,5.1-0.4,5.9-3.6c2.3-0.2,4.3-0.8,5.2-3.2
			c1-1.7,2.1-3.5,3.1-5.2c3.8-2.9,2.5-9.6,8.3-11C184,296.1,184.9,290.2,187.9,290.3z"/>
		<path class="st23" d="M183,220.6c-7.3-16.5-21.2-28.5-30.5-45.2c7.5-0.7,9.8,4.9,12.8,8.7c7.5,9.3,14.3,19.1,21.8,28.4
			c3.1,3.8,5.9,8.6,12,8.2c-2.1,5.1-4.2,10.2-6.3,15.3c-0.4-0.2-0.9-0.3-1.2-0.5c-0.3-0.3-0.5-0.7-0.7-1.1
			C191.6,227.9,187.9,223.9,183,220.6z"/>
		<path class="st24" d="M420.6,201.6c2.4,13.5-0.2,23.1-9.5,30.4c-3.1,2.4-6.9,4-10.1,1.8c-3.5-2.3-2.7-6.8-1.5-10.2
			C402.9,213.7,410.2,207.2,420.6,201.6z"/>
		<path class="st25" d="M213.6,218.3c3.5-20.2,7-40.5,10.5-60.7c0.9,20.6,0,40.9-5.1,60.8C217.1,209,215.3,219.3,213.6,218.3z"/>
		<path class="st26" d="M271.3,259.5c5.2-2.2,11.1-3.9,6.5-11.8c-1.3-2.2-0.4-7.5,1.9-6.1c9.4,5.7,24.1,3.9,27.7,18.2
			c-6-5.9-12.6-7-20-2.7C282.3,260.2,276.9,260,271.3,259.5z"/>
		<path class="st27" d="M146.7,268.2c0-1,0-2-0.1-2.9c4.6,0.3,5.9-3.9,8-6.5c5.5-6.9,17.2-7.8,25.3-1.7
			C170.1,264.4,159.7,270.3,146.7,268.2z"/>
		<path class="st4" d="M443.4,332c-0.8-4-1.7-7.9-2.5-11.9c14.6,0.1,18.5-16.8,33-20.2C465.8,314,455.5,323.8,443.4,332z"/>
		<path class="st28" d="M116.2,269.2c-0.2-1.4-0.2-2.7-0.5-4.1c-1-6-0.2-12.7,5.8-14.3c8.8-2.3,4.5,8.2,8.5,12.1
			c4.5,4.4-4.9,5.4-8.4,7.8C119.9,270.2,118.1,269.7,116.2,269.2z"/>
		<path class="st5" d="M183,220.6c4.9,3.3,8.6,7.3,8,13.8c-3.7-0.7-7.3-1.4-11-2.1c-8.6-5.1-17.8-9.3-24.6-16.9
			c5.5-0.7,9,3.2,13.2,5.4C173.3,223.2,178.3,226.3,183,220.6z"/>
		<path class="st29" d="M371.2,279.4c10.2-7.1,22.2-9.2,33.6-13.2c-8.4,9.2-22,9.2-30.3,18.3C371.9,283.7,371.4,281.6,371.2,279.4z"
			/>
		<path class="st30" d="M384.8,309.3c3.8,6.9,6.5-0.4,9.9-1.5c1.1,5.2-1.4,8.1-4.4,10.9c-7.2,3.5-10.5-1.9-12-6.7
			C377.3,308.8,382.5,310.1,384.8,309.3z"/>
		<path class="st31" d="M338,270.8c-7.1-7.6-14.1-15.3-16.9-26.5c6.5,8,12.9,16,19.4,24C339.7,269.2,338.8,270,338,270.8z"/>
		<path class="st32" d="M343.2,298.4c2.2,0.4,4.6,0.6,5.8,3c-8.2,8.7-11.6,19.2-11.4,30.9c0.1,5.9,0.3,11.5-8.1,10.9
			c-10.5-5.2-26.9-7.4-28.3-18.7c-1.2-9.5,16.1-10.1,24-16.1C330.9,304.1,337,301.3,343.2,298.4z"/>
		<path class="st33" d="M171.7,304.1c-1,1.7-2.1,3.5-3.1,5.2c-6.9-5.6-8-15.6-16.2-20.5c2.8-5,5.2,0.1,7.8-0.4
			c7.5-1.3,7.7,0,7.4,8.7C167.5,299.4,170.2,301.8,171.7,304.1z"/>
		<path class="st34" d="M163.4,312.6c-0.8,3.2-1.2,6.2-5.9,3.6c-4.3-2.4-9.1-4.2-13.6-6.3C151.7,301.9,157.3,309,163.4,312.6z"/>
		<path class="st35" d="M146.8,265.3c-3.1,0.1-4.4,5.9-7.9,3.1c-4-3.2-0.7-7.5-0.5-11.4c5.3-1.6,6.8-12.1,16.1-5.9
			C152,255.6,149.4,260.4,146.8,265.3z"/>
	</g>
</g>
</svg>
