<svg version="1" xmlns="http://www.w3.org/2000/svg" width="240" height="240" viewBox="0 0 180.000000 180.000000"><path d="M56.4 20.4c-.3.8-.4 5.2-.2 9.9.3 9.6 1 9.2-8.4 4.7-2.6-1.2-5.9-2-7.5-1.8l-2.8.3.2 7.3c.1 4.1.6 7.9 1.1 8.5.5.7 1.6 3.4 2.5 6l1.6 4.8-2.5-2c-3-2.4-11-3.4-17.9-2.4-4.9.8-5 .9-5.3 4.4-.3 3.7.9 5 9 9.4 1.9 1 2.4 2.5.8 2.5-.8 0-5.4 2.7-10.7 6.5-1.3.9-2.3 2.6-2.3 4 0 2.6 4.2 6.5 6.9 6.5.9 0 3.5.9 5.6 2 2.2 1.1 5.8 2.3 7.9 2.7l3.9.6-3.4 1.8c-4.6 2.3-9.2 11.1-8.7 16.4.3 4 2.6 6.3 4.9 5.1.8-.4 3-1.5 4.9-2.6 4.1-2.1 4.7-1.3 3.1 3.9-.7 2-1.1 6.7-.9 10.6.3 5.9.6 7 2.2 7.3 1.6.3 6.2-1.4 10.6-4 .8-.5 2.8-1.6 4.5-2.6 6.3-3.7 17.3-15.8 20.6-22.6l3.2-6.6 6.6 6.7 6.6 6.8-1.9 4.5c-1.4 3.2-2 6.7-2 12.2 0 6.9.5 8.5 3.8 15.4 4.3 8.6 6.7 11.4 9.6 11.4 3.4 0 3.3-2.5 0-9.6-4.1-8.6-5.1-17.4-2.5-24 1.6-4.2 1.8-4.4 3.4-3 1 .9 4.2 2.3 7.2 3.2 3 .9 5.8 2 6.3 2.5.6.5 2.2.9 3.7.9 1.9 0 3.3 1 5 3.5 2.3 3.5 5.8 5.3 7.8 4.1.5-.4 1.2-2 1.6-3.6.8-3.9 1.3-4.1 8.6-4.1 4.9-.1 6.2-.4 6.6-1.7.4-1.6 10.5-8.7 14.6-10.4.9-.4 1.7-1.2 1.7-1.7s2.3-3.5 5.1-6.5c3.7-4.1 5.1-6.5 5.3-8.8.1-2.7-.3-3.3-2.9-3.9-1.6-.5-5.1-1.4-7.6-2.1l-4.7-1.3 3-3.5c1.8-2.2 2.8-4.4 2.6-6-.3-2.4-.6-2.5-7.6-2.8l-7.4-.3 1.6-2.5c.9-1.3 1.8-4.8 1.9-7.7.2-5 .1-5.2-2.6-5.5-1.6-.2-3.8.5-5.4 1.8l-2.6 2-1.6-4.7c-1.9-5.8-5.1-7-8.5-3-2 2.4-2.4 2.4-8.1 1.5-7.2-1.1-10.9-1.2-15.2-.3l-3.3.7 2.6-4.8c3.3-6.2 4.4-14.1 2-15-2.8-1.1-8.3.5-12.2 3.7-4.4 3.5-4.8 3.1-5.8-5.1-.4-3-1.2-6.1-1.9-6.8-.6-.8-1.8-3.5-2.7-6.1-1.4-4-2-4.6-4.8-4.9-2.6-.3-3.4.1-4.1 2.1-.6 1.4-1.4 2.8-2 3.1-.6.4-2 2.8-3.1 5.4l-2.1 4.7-1.8-5.1c-2.4-6.7-3-7.7-6.7-10.8-3.5-2.8-8.1-3.5-9-1.2zm11.2 9.8C70.4 35.5 69 44 65.4 44c-3.5 0-7.3-11.6-6-18.6l.7-3.6 3.1 2.8c1.6 1.6 3.6 4.1 4.4 5.6zm20.9 2.5c3.6 8.9 4.4 19.9 2 27.2-1.6 4.8-9.6 15.3-10.8 14.1-.3-.3-.1-4.1.4-8.4 1.5-11.8.7-12.2-1.5-.8-1.9 10.1-2.9 12-4.1 8.2-.7-2.3-2.5-2.7-2.5-.5 0 2.8-1.7 1.5-7.3-5.6-7.3-9.2-7.4-7.7-.2 2.1 5.9 8.1 6.5 9.4 3.8 8.6-1-.2-2.9-.8-4.3-1.1l-2.5-.7 2.4 2.6 2.5 2.6-2.5-.1c-8.5-.3-17.9.4-17.9 1.3 0 .5.7.8 1.5.5.8-.4 1.7-.1 2.1.5.5.7.2.8-.7.3-1.2-.8-1.2-.6 0 .8 1.3 1.6 3.7 1.4 2.6-.2-.2-.5 2.9-.9 6.9-1 4.1-.1 7.7.2 8 .7.8 1.3-7.5 6.2-10.5 6.2-1.5 0-3 .4-3.3.9-.3.5-2 .7-3.8.4-1.8-.2-5.6-.5-8.5-.7-6-.4-22.3-6.4-22.3-8.3 0-1.9 11.8-8 19-9.9 7.3-1.8 14.1-1.4 19.2 1.2 3.1 1.6 3.1 1.5-1.5-3.6-4.9-5.5-10.8-16.5-12.5-23.5-2.3-9.3-2.3-9.5-.7-9.5 2.9 0 16 6.6 19.8 10 2.1 1.8 5 5.3 6.4 7.8l2.7 4.5 1.2-5.9c.7-3.2 2.2-8.1 3.4-10.9C77.7 36.3 83.9 26 85 26c.4 0 2 3 3.5 6.7zm21.3 15.7c-.9 7.5-7.9 14.6-13 13.1C92.2 60 97.9 50.3 106 46c1.9-1.1 3.7-1.9 3.9-2 .2 0 .1 2-.1 4.4zM36.7 60.6c1.3.8 3 2.6 4 4 2 3.1.7 4.4-4.7 4.4-4.2 0-14.5-5.7-14.5-8 0-3 10.9-3.3 15.2-.4zm104.2 4.8c2 7.9.9 15.7-2.7 19.8-1.6 1.9-.3 2.5 1.5.7 3.2-3.2 23.3-5.4 23.3-2.4 0 2.7-9.5 11-14.5 12.7l-4.8 1.5 3.1 1.1c1.8.6 3.2 1.4 3.2 1.7 0 .3-.6.3-1.2-.1-.9-.5-.9-.2.1.9 1.5 1.8 2.6 2.3 1.6.7-1.3-2 1.4-.9 2.9 1.2.9 1.2 1.6 1.9 1.6 1.4s1.1.3 2.5 1.8c1.3 1.4 2.7 2.6 3.1 2.6.3 0 2.9-1.9 5.7-4.2 2.7-2.4 4.8-3.7 4.6-3.1-1 2.8-12.2 13.1-17.7 16.3-3.8 2.2-6.2 4.2-6.2 5.2 0 2.1-.1 2.1-3.3.9-1.5-.6-3.9-.6-6.4.1-3.2.8-4.2 1.6-5.2 4.4-.7 1.9-1.6 3.4-2.2 3.4-.5 0-2-1.7-3.4-3.9-2.2-3.2-3.3-3.9-6.9-4.4-4.7-.7-10.4-3-15-6.1l-2.9-2-2.3 2.7c-5.6 6.5-6.2 18.6-1.5 29.2 1.3 3 1.6 4.3.7 3.6-.7-.6-2.5-3.8-4-7-3.9-8.8-3.8-18.8.3-27l1.9-3.7-8.2-8.6c-4.6-4.7-8.8-10-9.6-11.7-1.1-2.8-2.9-4.2-3-2.4-.7 12.4-2.9 17.7-10.7 25.9-6.3 6.6-20 16.4-23 16.4-.1 0-.3-2.9-.3-6.4 0-10 5.1-24.6 8.6-24.6.8 0 1.4-.9 1.4-1.9 0-2 5.7-7.1 7.8-7.1.6 0 1.2-.5 1.4-1 .5-1.5 8.1-4 9.2-3 .4.4-.3 2.4-1.6 4.4-1.4 2-2.8 3.3-3.2 2.8-.4-.4-.6-.3-.5.3.2.5-.4 2.2-1.4 3.7-.9 1.6-2.4 3.9-3.2 5.3-1.8 2.9-3.7 3.4-2.9.7.5-1.4.4-1.5-.5-.2-1.5 2.1-1.4 6.1.1 5.7 1.8-.3 3.1-1.8 5.2-6 1.8-3.5 2.8-4.2 5.1-3.7.6.1.5-.4-.2-1-.8-.9-.3-2.3 2.4-5.9 1.9-2.5 3.9-4.7 4.4-4.9 1.4-.5 1.1-4.4-.6-7.6-3.9-7.5 3.6-3.2 13 7.4 9 10.1 15 16 16.3 16 .8 0 3.2-1.3 5.5-2.9 3.7-2.6 6.9-4.1 14.2-6.6 1.7-.5 1.4-.9-2-2-2.2-.8-5.8-3.3-8-5.7-4.1-4.3-7.2-5.1-10.3-2.6-1.6 1.4-13.7.4-15.7-1.2-2.3-1.9-1.9-2.3 3.3-4.3 6.3-2.5 9.3-4 8.8-4.4-.2-.2-1.5.1-3 .7-1.5.5-3.1.8-3.6.5-.5-.3-1-.2-1.2.2-.1.5-2.4 1.6-5 2.5-5.9 2.1-6.3.9-1.4-4.8C89.9 69 102.6 64 113.6 64c1.8 0 3.4-.4 3.6-1 .2-.7 8.9 1.3 10.6 2.5.8.6-4.2 9.5-5.3 9.5-1.9 0-1.9-.4 1 5.4 1.5 2.9 2.5 6.6 2.5 9l-.1 4.1-5.1-5.5c-5.4-5.8-4.8-4.5 1.4 3.1 3.2 4 4.1 4.5 6.8 4.1 2-.3 3 0 3 .9 0 .7-.3 1-.6.6-.4-.3-1.3.1-2.1.9-1.3 1.2-1.1 1.8 1.1 4.5 2.8 3.3 3.3 4.8 4.4 12.3.8 5.5 2.5 6.7 3 2.1.5-4.4 1.6-4.9 4.4-2 2 2 3.1 2.4 5.7 1.9 4.3-.9 4.9-2.3 1.2-3-1.8-.4-2.8-1.1-2.4-1.7.3-.6.1-.7-.6-.3-1.7 1.1-5.1-.3-5.1-2 0-.8-.5-1.2-1-.9-.6.3-1.7-.1-2.6-1-.9-.9-1.5-1.7-1.3-1.8.2-.1 1.4-.7 2.5-1.4 1.9-1 2.1-.9 1.9.5-.1.9 0 1.1.2.4.3-.7 1.5-1 3.1-.7 1.6.3.3-.6-2.8-2.2-6.1-3-7.8-4.6-5.3-5.2 1.3-.2 1.3-.5.2-1.2-1-.6.2-1.5 4.1-3.4 5.5-2.5 3.5-2.5-2.9.1-3.6 1.5-5.2 1.1-3.3-.8 1.8-1.8 1.4-3.2-.4-1.7-1.5 1.2-1.6.9-1-3.1l.6-4.5-1.6 4.3c-1.2 3.3-1.9 4.1-2.8 3.2-1.8-1.8-1.3-13 .8-17 2.9-5.4 8.7-13.1 9.6-12.5.4.2 1.3 2.5 1.9 4.9zm-94.5.1c.3.8.1 1.5-.4 1.5-.6 0-1-.7-1-1.5s.2-1.5.4-1.5.6.7 1 1.5zm105.5 5.2c-1.3 6.2-7.9 10-7.9 4.7 0-2.8 6.3-10 7.9-9 .5.4.5 2.1 0 4.3zm-43.2 27.7l-5.2 3.2-5-5c-2.7-2.7-4.5-5.1-3.9-5.3.5-.2 3.6-.7 6.9-1.1 5.8-.8 6.1-.7 9.2 2.1l3.2 3-5.2 3.1zm58-2.3c2.7 1 2.8 1.1.8 2.5-4.2 3.1-11 3-12.2-.2-1.2-3.2 5.6-4.5 11.4-2.3zM44.4 98.3c1.7 1.3 1.7 1.5.2 4.5-2.6 5-13.2 11.9-15.2 9.9-.9-.9 1.5-7.3 3.8-10.3 1.8-2.2 6.7-5.2 8.9-5.4.3 0 1.3.6 2.3 1.3zm94 4.8c-.4.7-4.4 0-4.4-.7 0-.2 1.1-.3 2.4-.2 1.4.1 2.3.5 2 .9z"/><path d="M33 83.1c0 .5.5.7 1 .4.6-.3 1-.8 1-1.1 0-.2-.4-.4-1-.4-.5 0-1 .5-1 1.1zM53.7 86.1c.7.7 1.5 1 1.8.7.3-.3-.2-.9-1.2-1.2-1.4-.6-1.5-.5-.6.5zM95.5 80c-.8 1.3 1.5 2.4 2.7 1.2.6-.6.4-1.1-.6-1.5-.8-.3-1.8-.2-2.1.3zM100.3 83.5c0 .8.4 1.5.9 1.5.4 0 .8-.4.8-.9 0-.6-.4-1.2-.8-1.5-.5-.3-.9.1-.9.9zM59.5 94.1c-1.8.8-1.7.8.5.6 1.9-.1 2.4.2 2.2 1.5-.1.9.2 1.9.8 2.3.6.4 1-.4 1-1.8 0-2.9-1.6-3.8-4.5-2.6zM117.1 104.6c-4.6 2.4-8.6 4.6-8.9 4.8-1.5 1.5 8 7.6 11.8 7.6 1.7 0 2-.7 2-4.3 0-3.6 3.4-11.7 4.5-10.6.2.2.5 2.9.7 5.9.3 5.3 1.1 7 3.3 7 .6 0 .3-.5-.5-1-1.2-.8-1.2-1 .5-1 1.8-.1 1.8-.2.3-1-1.1-.7-1.9-3-2.3-6.5-.4-3.1-1.2-5.5-1.9-5.4-.6 0-4.9 2.1-9.5 4.5zm1.3 5.7c-.3.9-1.2 1.3-2.1 1-1.4-.5-1.3-.8.2-2 2.2-1.5 2.8-1.2 1.9 1zM52 105.4c0 .2.8 1 1.8 1.7 1.5 1.3 1.6 1.2.3-.4s-2.1-2.1-2.1-1.3z"/><path d="M124.5 109c-.3.5.1 1 1 1s1.3-.5 1-1c-.3-.6-.8-1-1-1-.2 0-.7.4-1 1zM142.7 109.5c.3.8.9 1.2 1.4.9 1.2-.7 1.1-1.1-.5-1.7-1-.4-1.3-.1-.9.8zM61.5 112.1c-.4.6-.4 1.3-.1 1.6.3.4.6.1.6-.6s.5-.9 1.2-.5.8.3.4-.4c-.9-1.5-1.3-1.5-2.1-.1zM46.2 113.4c.7.8 1.7 1.2 2.2.9.4-.3.2-.9-.5-1.4-2.2-1.3-3.1-1.1-1.7.5zM132.3 116.5c0 .8.4 1.5.9 1.5.4 0 .8-.4.8-.9 0-.6-.4-1.2-.8-1.5-.5-.3-.9.1-.9.9zM51.5 117c-.4.6-1.2.7-1.8.4-.7-.4-.8-.3-.4.1 1.3 1.5 3.4 1.4 3.4-.1 0-1.7-.4-1.8-1.2-.4z"/></svg>